<mxfile host="app.diagrams.net" modified="2023-08-25T13:00:05.683Z" agent="Mozilla/5.0 (Windows NT 10.0; Win64; x64) AppleWebKit/537.36 (KHTML, like Gecko) Chrome/115.0.0.0 Safari/537.36 OPR/101.0.0.0" version="21.6.9" etag="T8DqYstz0pHox3uxBL0L" type="github">
  <diagram name="PÃ¡gina-1" id="kq8f3YcU7MSCpeIHnqGT">
    <mxGraphModel>
      <root>
        <mxCell id="0" />
        <mxCell id="1" parent="0" />
      </root>
    </mxGraphModel>
  </diagram>
</mxfile>
